<mxfile host="app.diagrams.net" agent="Mozilla/5.0 (Windows NT 10.0; Win64; x64) AppleWebKit/537.36 (KHTML, like Gecko) Chrome/134.0.0.0 Safari/537.36" version="26.1.0">
  <diagram name="Side-1" id="ZalhD_f7BSgLu8oEKuKj">
    <mxGraphModel dx="1098" dy="683" grid="1" gridSize="10" guides="1" tooltips="1" connect="1" arrows="1" fold="1" page="1" pageScale="1" pageWidth="827" pageHeight="1169" math="0" shadow="0">
      <root>
        <mxCell id="0" />
        <mxCell id="1" parent="0" />
        <mxCell id="xN12FdUDQYVVhbr5n7pk-11" value="" style="edgeStyle=orthogonalEdgeStyle;rounded=0;orthogonalLoop=1;jettySize=auto;html=1;" edge="1" parent="1" source="xN12FdUDQYVVhbr5n7pk-6" target="xN12FdUDQYVVhbr5n7pk-10">
          <mxGeometry relative="1" as="geometry" />
        </mxCell>
        <mxCell id="xN12FdUDQYVVhbr5n7pk-6" value="Get Hint" style="strokeWidth=2;html=1;shape=mxgraph.flowchart.start_2;whiteSpace=wrap;" vertex="1" parent="1">
          <mxGeometry x="40" y="40" width="100" height="100" as="geometry" />
        </mxCell>
        <mxCell id="xN12FdUDQYVVhbr5n7pk-31" value="" style="edgeStyle=orthogonalEdgeStyle;rounded=0;orthogonalLoop=1;jettySize=auto;html=1;" edge="1" parent="1" source="xN12FdUDQYVVhbr5n7pk-7" target="xN12FdUDQYVVhbr5n7pk-30">
          <mxGeometry relative="1" as="geometry" />
        </mxCell>
        <mxCell id="xN12FdUDQYVVhbr5n7pk-7" value="Quick&lt;div&gt;Solve&lt;/div&gt;" style="strokeWidth=2;html=1;shape=mxgraph.flowchart.start_2;whiteSpace=wrap;" vertex="1" parent="1">
          <mxGeometry x="40" y="280" width="100" height="100" as="geometry" />
        </mxCell>
        <mxCell id="xN12FdUDQYVVhbr5n7pk-15" value="" style="edgeStyle=orthogonalEdgeStyle;rounded=0;orthogonalLoop=1;jettySize=auto;html=1;" edge="1" parent="1" source="xN12FdUDQYVVhbr5n7pk-10" target="xN12FdUDQYVVhbr5n7pk-14">
          <mxGeometry relative="1" as="geometry" />
        </mxCell>
        <mxCell id="xN12FdUDQYVVhbr5n7pk-10" value="Solver.Step" style="whiteSpace=wrap;html=1;strokeWidth=2;" vertex="1" parent="1">
          <mxGeometry x="160" y="60" width="120" height="60" as="geometry" />
        </mxCell>
        <mxCell id="xN12FdUDQYVVhbr5n7pk-23" value="" style="edgeStyle=orthogonalEdgeStyle;rounded=0;orthogonalLoop=1;jettySize=auto;html=1;" edge="1" parent="1" source="xN12FdUDQYVVhbr5n7pk-14" target="xN12FdUDQYVVhbr5n7pk-22">
          <mxGeometry relative="1" as="geometry" />
        </mxCell>
        <mxCell id="xN12FdUDQYVVhbr5n7pk-14" value="Show Dialog&lt;div&gt;with description of&lt;/div&gt;&lt;div&gt;solver step (incl. button to execute)&lt;/div&gt;" style="whiteSpace=wrap;html=1;strokeWidth=2;" vertex="1" parent="1">
          <mxGeometry x="310" y="60" width="120" height="60" as="geometry" />
        </mxCell>
        <mxCell id="xN12FdUDQYVVhbr5n7pk-16" value="Show step in solution box" style="whiteSpace=wrap;html=1;strokeWidth=2;" vertex="1" parent="1">
          <mxGeometry x="310" y="140" width="120" height="60" as="geometry" />
        </mxCell>
        <mxCell id="xN12FdUDQYVVhbr5n7pk-19" value="" style="endArrow=classic;html=1;rounded=0;exitX=0.5;exitY=1;exitDx=0;exitDy=0;entryX=0;entryY=0.5;entryDx=0;entryDy=0;dashed=1;" edge="1" parent="1" source="xN12FdUDQYVVhbr5n7pk-10" target="xN12FdUDQYVVhbr5n7pk-16">
          <mxGeometry width="50" height="50" relative="1" as="geometry">
            <mxPoint x="290" y="220" as="sourcePoint" />
            <mxPoint x="340" y="170" as="targetPoint" />
            <Array as="points">
              <mxPoint x="220" y="170" />
            </Array>
          </mxGeometry>
        </mxCell>
        <mxCell id="xN12FdUDQYVVhbr5n7pk-25" value="" style="edgeStyle=orthogonalEdgeStyle;rounded=0;orthogonalLoop=1;jettySize=auto;html=1;" edge="1" parent="1" source="xN12FdUDQYVVhbr5n7pk-22" target="xN12FdUDQYVVhbr5n7pk-24">
          <mxGeometry relative="1" as="geometry" />
        </mxCell>
        <mxCell id="xN12FdUDQYVVhbr5n7pk-26" value="Yes" style="edgeLabel;html=1;align=center;verticalAlign=middle;resizable=0;points=[];" vertex="1" connectable="0" parent="xN12FdUDQYVVhbr5n7pk-25">
          <mxGeometry x="-0.0889" relative="1" as="geometry">
            <mxPoint as="offset" />
          </mxGeometry>
        </mxCell>
        <mxCell id="xN12FdUDQYVVhbr5n7pk-22" value="Execute" style="rhombus;whiteSpace=wrap;html=1;strokeWidth=2;" vertex="1" parent="1">
          <mxGeometry x="470" y="50" width="80" height="80" as="geometry" />
        </mxCell>
        <mxCell id="xN12FdUDQYVVhbr5n7pk-24" value="Add step to undo/redo stack" style="whiteSpace=wrap;html=1;strokeWidth=2;" vertex="1" parent="1">
          <mxGeometry x="450" y="180" width="120" height="60" as="geometry" />
        </mxCell>
        <mxCell id="xN12FdUDQYVVhbr5n7pk-27" value="End" style="strokeWidth=2;html=1;shape=mxgraph.flowchart.terminator;whiteSpace=wrap;" vertex="1" parent="1">
          <mxGeometry x="610" y="60" width="100" height="60" as="geometry" />
        </mxCell>
        <mxCell id="xN12FdUDQYVVhbr5n7pk-28" style="edgeStyle=orthogonalEdgeStyle;rounded=0;orthogonalLoop=1;jettySize=auto;html=1;exitX=1;exitY=0.5;exitDx=0;exitDy=0;entryX=0;entryY=0.5;entryDx=0;entryDy=0;entryPerimeter=0;" edge="1" parent="1" source="xN12FdUDQYVVhbr5n7pk-22" target="xN12FdUDQYVVhbr5n7pk-27">
          <mxGeometry relative="1" as="geometry" />
        </mxCell>
        <mxCell id="xN12FdUDQYVVhbr5n7pk-29" value="No" style="edgeLabel;html=1;align=center;verticalAlign=middle;resizable=0;points=[];" vertex="1" connectable="0" parent="xN12FdUDQYVVhbr5n7pk-28">
          <mxGeometry x="-0.22" y="-1" relative="1" as="geometry">
            <mxPoint as="offset" />
          </mxGeometry>
        </mxCell>
        <mxCell id="xN12FdUDQYVVhbr5n7pk-33" value="" style="edgeStyle=orthogonalEdgeStyle;rounded=0;orthogonalLoop=1;jettySize=auto;html=1;" edge="1" parent="1" source="xN12FdUDQYVVhbr5n7pk-30" target="xN12FdUDQYVVhbr5n7pk-32">
          <mxGeometry relative="1" as="geometry" />
        </mxCell>
        <mxCell id="xN12FdUDQYVVhbr5n7pk-30" value="Run Solver" style="whiteSpace=wrap;html=1;strokeWidth=2;" vertex="1" parent="1">
          <mxGeometry x="210" y="300" width="120" height="60" as="geometry" />
        </mxCell>
        <mxCell id="xN12FdUDQYVVhbr5n7pk-35" value="" style="edgeStyle=orthogonalEdgeStyle;rounded=0;orthogonalLoop=1;jettySize=auto;html=1;" edge="1" parent="1" source="xN12FdUDQYVVhbr5n7pk-32" target="xN12FdUDQYVVhbr5n7pk-34">
          <mxGeometry relative="1" as="geometry" />
        </mxCell>
        <mxCell id="xN12FdUDQYVVhbr5n7pk-32" value="Show result in solution box" style="whiteSpace=wrap;html=1;strokeWidth=2;" vertex="1" parent="1">
          <mxGeometry x="410" y="300" width="120" height="60" as="geometry" />
        </mxCell>
        <mxCell id="xN12FdUDQYVVhbr5n7pk-34" value="Apply all steps (added to undo/redo stacks)" style="whiteSpace=wrap;html=1;strokeWidth=2;" vertex="1" parent="1">
          <mxGeometry x="610" y="300" width="120" height="60" as="geometry" />
        </mxCell>
        <mxCell id="xN12FdUDQYVVhbr5n7pk-36" value="Solve button in&amp;nbsp;&lt;div&gt;top right corner&lt;/div&gt;" style="ellipse;shape=cloud;whiteSpace=wrap;html=1;" vertex="1" parent="1">
          <mxGeometry x="80" y="220" width="120" height="80" as="geometry" />
        </mxCell>
        <mxCell id="xN12FdUDQYVVhbr5n7pk-40" value="" style="edgeStyle=orthogonalEdgeStyle;rounded=0;orthogonalLoop=1;jettySize=auto;html=1;" edge="1" parent="1" source="xN12FdUDQYVVhbr5n7pk-37" target="xN12FdUDQYVVhbr5n7pk-39">
          <mxGeometry relative="1" as="geometry" />
        </mxCell>
        <mxCell id="xN12FdUDQYVVhbr5n7pk-37" value="&lt;div&gt;Solve&lt;/div&gt;" style="strokeWidth=2;html=1;shape=mxgraph.flowchart.start_2;whiteSpace=wrap;" vertex="1" parent="1">
          <mxGeometry x="40" y="500" width="100" height="100" as="geometry" />
        </mxCell>
        <mxCell id="xN12FdUDQYVVhbr5n7pk-38" value="Solution box in&lt;div&gt;the bottom&lt;/div&gt;" style="ellipse;shape=cloud;whiteSpace=wrap;html=1;" vertex="1" parent="1">
          <mxGeometry x="80" y="440" width="120" height="80" as="geometry" />
        </mxCell>
        <mxCell id="xN12FdUDQYVVhbr5n7pk-42" value="" style="edgeStyle=orthogonalEdgeStyle;rounded=0;orthogonalLoop=1;jettySize=auto;html=1;" edge="1" parent="1" source="xN12FdUDQYVVhbr5n7pk-39" target="xN12FdUDQYVVhbr5n7pk-41">
          <mxGeometry relative="1" as="geometry" />
        </mxCell>
        <mxCell id="xN12FdUDQYVVhbr5n7pk-43" value="Yes" style="edgeLabel;html=1;align=center;verticalAlign=middle;resizable=0;points=[];" vertex="1" connectable="0" parent="xN12FdUDQYVVhbr5n7pk-42">
          <mxGeometry x="0.0333" y="2" relative="1" as="geometry">
            <mxPoint as="offset" />
          </mxGeometry>
        </mxCell>
        <mxCell id="xN12FdUDQYVVhbr5n7pk-51" value="" style="edgeStyle=orthogonalEdgeStyle;rounded=0;orthogonalLoop=1;jettySize=auto;html=1;" edge="1" parent="1" source="xN12FdUDQYVVhbr5n7pk-39" target="xN12FdUDQYVVhbr5n7pk-50">
          <mxGeometry relative="1" as="geometry" />
        </mxCell>
        <mxCell id="xN12FdUDQYVVhbr5n7pk-39" value="Step" style="rhombus;whiteSpace=wrap;html=1;strokeWidth=2;" vertex="1" parent="1">
          <mxGeometry x="184" y="510" width="80" height="80" as="geometry" />
        </mxCell>
        <mxCell id="xN12FdUDQYVVhbr5n7pk-45" value="" style="edgeStyle=orthogonalEdgeStyle;rounded=0;orthogonalLoop=1;jettySize=auto;html=1;" edge="1" parent="1" source="xN12FdUDQYVVhbr5n7pk-41" target="xN12FdUDQYVVhbr5n7pk-44">
          <mxGeometry relative="1" as="geometry" />
        </mxCell>
        <mxCell id="xN12FdUDQYVVhbr5n7pk-41" value="Solver.Step" style="whiteSpace=wrap;html=1;strokeWidth=2;" vertex="1" parent="1">
          <mxGeometry x="300" y="520" width="120" height="60" as="geometry" />
        </mxCell>
        <mxCell id="xN12FdUDQYVVhbr5n7pk-49" value="" style="edgeStyle=orthogonalEdgeStyle;rounded=0;orthogonalLoop=1;jettySize=auto;html=1;" edge="1" parent="1" source="xN12FdUDQYVVhbr5n7pk-44" target="xN12FdUDQYVVhbr5n7pk-48">
          <mxGeometry relative="1" as="geometry" />
        </mxCell>
        <mxCell id="xN12FdUDQYVVhbr5n7pk-44" value="Show description" style="whiteSpace=wrap;html=1;strokeWidth=2;" vertex="1" parent="1">
          <mxGeometry x="460" y="520" width="120" height="60" as="geometry" />
        </mxCell>
        <mxCell id="xN12FdUDQYVVhbr5n7pk-48" value="Apply step" style="whiteSpace=wrap;html=1;strokeWidth=2;" vertex="1" parent="1">
          <mxGeometry x="620" y="520" width="120" height="60" as="geometry" />
        </mxCell>
        <mxCell id="xN12FdUDQYVVhbr5n7pk-55" style="edgeStyle=orthogonalEdgeStyle;rounded=0;orthogonalLoop=1;jettySize=auto;html=1;exitX=1;exitY=0.5;exitDx=0;exitDy=0;entryX=0;entryY=0.5;entryDx=0;entryDy=0;" edge="1" parent="1" source="xN12FdUDQYVVhbr5n7pk-50" target="xN12FdUDQYVVhbr5n7pk-53">
          <mxGeometry relative="1" as="geometry" />
        </mxCell>
        <mxCell id="xN12FdUDQYVVhbr5n7pk-50" value="Run Solver" style="whiteSpace=wrap;html=1;strokeWidth=2;" vertex="1" parent="1">
          <mxGeometry x="164" y="620" width="120" height="60" as="geometry" />
        </mxCell>
        <mxCell id="xN12FdUDQYVVhbr5n7pk-52" value="" style="edgeStyle=orthogonalEdgeStyle;rounded=0;orthogonalLoop=1;jettySize=auto;html=1;" edge="1" parent="1" source="xN12FdUDQYVVhbr5n7pk-53" target="xN12FdUDQYVVhbr5n7pk-54">
          <mxGeometry relative="1" as="geometry" />
        </mxCell>
        <mxCell id="xN12FdUDQYVVhbr5n7pk-53" value="Show result in solution box" style="whiteSpace=wrap;html=1;strokeWidth=2;" vertex="1" parent="1">
          <mxGeometry x="320" y="620" width="120" height="60" as="geometry" />
        </mxCell>
        <mxCell id="xN12FdUDQYVVhbr5n7pk-54" value="Apply all steps (added to undo/redo stacks)" style="whiteSpace=wrap;html=1;strokeWidth=2;" vertex="1" parent="1">
          <mxGeometry x="470" y="620" width="120" height="60" as="geometry" />
        </mxCell>
      </root>
    </mxGraphModel>
  </diagram>
</mxfile>
